<svg xmlns="http://www.w3.org/2000/svg" viewBox="0 0 460.39 460.03"><defs><style>.cls-1{fill:#f2a416;}.cls-2{fill:#dd9417;}.cls-3{fill:#250f25;}.cls-4{fill:#e19717;}.cls-5{fill:#e69b17;}.cls-6{fill:#e89c17;}.cls-7{fill:#eb9f17;}.cls-8{fill:#e89d17;}.cls-9{fill:#eda016;}.cls-10{fill:#e79c17;}.cls-11{fill:#e99d17;}.cls-12{fill:#64bb4a;}.cls-13{fill:#f1a316;}.cls-14{fill:#f0a216;}.cls-15{fill:#f6a716;}.cls-16{fill:#de1346;}.cls-17{fill:#63ba49;}.cls-18{fill:#f0a316;}</style></defs><title>FatBoar</title><g id="Layer_2" data-name="Layer 2"><g id="Layer_1-2" data-name="Layer 1"><path class="cls-1" d="M230.48,0c124,0,230,100.07,229.91,231.06-.1,125.86-103.22,229.09-230.6,229C102.87,459.91-1.87,356.09,0,225.63,1.82,102.56,103.57,0,230.48,0Zm.06,8.77C108.79,8.73,11.22,106.23,8.82,224.4c-2.6,127.79,99.8,226.71,221.32,226.95,121.05.24,221.75-99.34,221.52-220.43C451.41,104.71,349.87,8.85,230.54,8.77Z"/><path class="cls-2" d="M445.81,230.6c-.36,117.15-95.53,214.52-215.51,214.74C111.83,445.57,12.57,348.86,14.74,225c2-114,96-210,215.12-210.38C345.81,14.29,445.07,107.56,445.81,230.6Zm-216,212.55c117.2.12,213.32-94.59,213.65-211.6.34-122.25-98.15-214.42-212.41-214.74C114.23,16.48,19.4,110,16.94,224.43A213.25,213.25,0,0,0,229.86,443.15Z"/><path class="cls-3" d="M121.77,67c-1.22-2.67-3.87-2.37-5.6-2.24-3,.22-2.15,3.41-2.09,5,.11,3.17,3.42,2.24,5.09,2.2C122.3,71.89,120.26,68.5,121.77,67ZM96.14,381c1,0,1.87.05,2.68,0,4.89-.36,4,.35,4-4.51,0-2.06-.66-2.76-2.79-2.57-5,.44-4.35-.43-4.11,4.55C96,379.22,96,380,96.14,381ZM95.57,85.88c2.11.14,4.09.71,5.81.27,2.38-.61,1-3,1.32-4.62.12-.66-.54-2-1-2.13A40.74,40.74,0,0,0,96,78.93Zm262.61,287.9c-.09,1.31-.17,2.36-.23,3.4-.21,3.68-.79,3.54,3.3,3.72,3.42.15,3.43.15,3.61-3.25.06-1,0-2.1,0-3.42ZM230.44,28.69l-4.55,4,4.42,4.73,4.82-4.48ZM427.23,234.38l5.07-4.2-4.64-5-5,4.81ZM344.79,64.43c-3.06,0-5.79,1.14-5.39,2.3.62,1.81-.7,4.89,2.11,5.21,1.67.19,4.73.65,5.33-1.92S346,64.43,344.79,64.43ZM186.29,37.77c-.7-.48-1.24-.89-1.8-1.23-4.07-2.5-4-2.45-6.54,1.7-.88,1.46-.7,2.18.77,3,5.08,2.82,3.61,3,6.56-1.61C185.61,39.12,185.86,38.57,186.29,37.77ZM86.37,102.2c-.1-1.87-.11-3.69-.34-5.47a1.75,1.75,0,0,0-1.25-1.14c-1.8,0-3.61.18-5.68.32l.46,6.85c2-.09,3.63-.15,5.29-.25A12.46,12.46,0,0,0,86.37,102.2ZM305.95,412.08c-.67-.35-1.12-.64-1.6-.83-5.4-2.21-4-2.94-6.63,2.58-.67,1.4-.29,2,1,2.55,5.47,2.14,4.06,2.88,6.61-2.63C305.59,413.28,305.71,412.77,305.95,412.08ZM54,318.29c-.31.86-.52,1.34-.66,1.84-1.59,5.69-2.63,4.26,3.75,6.39,1.2.4,1.84-.08,1.9-1.15.09-1.8,2.3-3.38.58-5.36,0,0-.14-.06-.21-.08Zm-5.95-12.56a16.45,16.45,0,0,0,.85-1.55c2.3-5.69,3.13-4.1-2.77-6.83-1.2-.56-1.76-.23-2.23.92-2.43,5.88-2.91,4.2,2.48,6.8C46.86,305.3,47.36,305.45,48.07,305.73ZM420.25,176.85c-1,1.65-2,3.17-2.81,4.78a1.57,1.57,0,0,0,.34,1.49c1.54,1.06,3.19,2,4.74,2.89,4.36-5.2,4.24-5.9-1.29-8.82A9,9,0,0,0,420.25,176.85ZM389.35,346.4c6.2.29,7.27-.86,5.93-6.1,0-.15-.06-.3-.1-.45-.5-1.68-1.83-.92-2.63-.64-1.42.49-3.51-.57-4.2,1.69a.53.53,0,0,0,0,.22Zm-8.23,10.85-6.82.45c0,.79,0,1.31,0,1.82.1,1.58.23,3.16.37,5,2-.09,3.78-.1,5.57-.32a1.75,1.75,0,0,0,1.14-1.25C381.42,361.15,381.24,359.34,381.12,357.25ZM38,273.94c-4.22,5.41-4.12,6.15.91,8.62.07,0,.15.12.19.11.69-.3,1.79-.45,2-1,.64-1.59,2.92-2.62,1.79-4.84,0-.06-.12-.09-.18-.13ZM381.4,95.78l-6.83-.38c-.14,2-.22,3.64-.38,5.3-.11,1.16.33,1.86,1.5,1.66,1.79-.31,3.85,1.31,5.4-.71,0-.05,0-.15,0-.22C381.22,99.63,381.3,97.83,381.4,95.78Zm-261,292.33c-6.24-.28-7.27.84-5.92,6.1,0,.07,0,.19,0,.22.67.36,1.5,1.14,2,1,1.63-.56,3.93.56,4.88-1.79a.46.46,0,0,0,0-.22Zm225.39,7.63a52.89,52.89,0,0,0,.91-5.44c0-.53-.75-1.58-1.18-1.59-1.82,0-4-1.92-5.38,0-.88,1.22-.77,3.2-.93,4.85,0,.34.64,1,1.09,1.1C341.94,395.11,343.66,395.36,345.75,395.74ZM135.2,408.26a44.79,44.79,0,0,0,5.3-1.69,2.2,2.2,0,0,0,.78-2c-.74-1.57,0-3.94-2.4-4.63-.06,0-.15,0-.22,0l-5.44,1.7ZM64.48,114.48l1.18,6.84,6.82-1.26c-.37-2.08-.59-3.81-1-5.49a1.74,1.74,0,0,0-1.35-1C68.3,113.75,66.52,114.13,64.48,114.48Zm323.62,5.81c2.09.36,3.8.72,5.52.91.46.05,1.31-.32,1.4-.65a35.06,35.06,0,0,0,.89-4.93,1.42,1.42,0,0,0-.86-1.06c-1.83-.43-3.69-.72-5.71-1.09ZM136.81,52.17c-1.47-.19-3.27,2.38-3,5.18s3.31,1.83,5,2.64c1.05.49,2.94-2.32,2.73-5.16S138,53.43,136.81,52.17ZM319,54.2c.18,3,1.84,6.25,2.78,5.82,1.78-.81,4.73,0,5.19-2.57.41-2.32-1.66-5.65-2.66-5.3C322.51,52.8,320.21,52.61,319,54.2ZM79.6,357.34c-.13,2.15-.3,4-.3,5.76,0,.42.58,1.17.94,1.19,1.87.12,3.74.06,5.84.06l.39-6.56Zm326.09-39.12c-1.8,1-4.54,1.63-5.11,3.1s1.31,3.6,2.11,5.46c1.91-.83,4.1-1.33,5.62-2.62C409.08,323.51,406.67,318.65,405.69,318.23ZM154.61,47.75c5,3.71,6.56,3.34,8.37-1.78.05-.14.2-.36.16-.41-.59-.7-1.1-1.76-1.86-2-1.42-.44-2.6-2.45-4.42-.93a.53.53,0,0,0-.11.2Zm31.73,374.51c-.39-.72-.63-1.19-.89-1.65-2.43-4.27-2.39-4.2-6.55-1.81-1.61.92-1.73,1.71-.77,3.19,3,4.6,1.6,4.36,6.45,1.55A20.21,20.21,0,0,0,186.34,422.26Zm-128.63-289c-2.12.08-5.51,1.76-5.47,2.7.11,2.24,1.85,5.73,2.68,5.34,1.8-.84,4.58-.11,5.31-2.54C60.74,137,58.57,133.18,57.71,133.21ZM426.5,249.79c-1.71,1.36-3.21,2.49-4.62,3.73a1.38,1.38,0,0,0-.21,1.32,39.83,39.83,0,0,0,3.08,3.91,1.4,1.4,0,0,0,1.35.08c1.53-1.07,3-2.25,4.66-3.54Zm-392.58,0-4.08,5.25c4.48,4.87,5.35,4.88,8.55.26,0-.06.14-.13.13-.18-.09-.68,0-1.62-.35-2A51.8,51.8,0,0,0,33.91,249.82ZM255.56,430.48c1.3-1.69,2.49-3.14,3.55-4.68a1.39,1.39,0,0,0-.13-1.34c-1.46-1.25-3-2.4-4.67-3.68l-4.27,5.49Zm47-388.77c-1.72,1.1-4.63,2-4.85,3.34-.26,1.62,1.77,3.6,2.81,5.42,1.78-1.08,3.92-1.86,5.21-3.36C306.42,46.32,303.52,42,302.57,41.7Zm-25,374.59c-1,2.24-2,4.24-2.89,6.27,0,.08.42.38.66.56,4.16,3.14,5.62,2.76,7.63-2,.16-.38.29-1.11.12-1.23C281.53,418.75,279.85,417.72,277.61,416.29ZM412.41,154.22c-.85,2-1.66,3.64-2.31,5.39a1.57,1.57,0,0,0,.56,1.41,33,33,0,0,0,4.36,1.89,1.4,1.4,0,0,0,1.27-.47,39.81,39.81,0,0,0,2-4.55,1.4,1.4,0,0,0-.57-1.22C416.09,155.83,414.37,155.11,412.41,154.22ZM254.52,39.29c1.5-1.15,2.92-2.14,4.21-3.28a1.77,1.77,0,0,0,.4-1.63c-1-1.55-2.23-3-3.34-4.42-5.9,2.93-6.12,3.93-2.15,8.53C253.83,38.71,254.08,38.89,254.52,39.29Zm-216.71,147c1.77-1,3.36-1.89,4.83-2.91a1.73,1.73,0,0,0,.47-1.6c-.83-1.66-1.86-3.22-2.91-5l-5.92,3.53Zm245.88-146c-1.35-2.21-2-4.72-3.41-5.19s-3.4,1.15-5,2a1.92,1.92,0,0,0-.39,1.8c2.18,4.86,3.17,5.1,7.44,2A8.38,8.38,0,0,1,283.69,40.23Zm74.37,46c2.12-.14,3.85-.2,5.56-.42.45-.06,1.18-.63,1.19-1a31.53,31.53,0,0,0-.31-5c0-.35-.84-.85-1.28-.84-1.79,0-3.57.21-5.59.35ZM402,133.48c-.53,1.74-1.12,3.46-1.54,5.22a1.58,1.58,0,0,0,.69,1.36c1.75.67,3.56,1.17,5.3,1.71,3-6.08,2.54-7-3.59-8.34A5.1,5.1,0,0,0,402,133.48ZM160.5,408.83c-2.34,1.6-5.05,2.49-5.51,4-.4,1.36,1.45,4.58,2.82,4.93s4.67-1.31,5.08-2.7C163.36,413.54,161.55,411.31,160.5,408.83ZM64.64,345.41c2,.36,3.74.72,5.52,1,.37.06,1.09-.17,1.14-.38a56.32,56.32,0,0,0,1-5.56c0-.26-.64-.75-1.07-.89-5.17-1.67-5.56-1.42-6.39,3.92C64.77,344,64.74,344.52,64.64,345.41Zm-20-182.17,6.31-2.73c-.87-2-1.58-3.73-2.43-5.41a1.4,1.4,0,0,0-1.25-.53,35.7,35.7,0,0,0-4.57,2.07,1.63,1.63,0,0,0-.33,1.5C42.95,159.77,43.73,161.33,44.6,163.24ZM426.16,279.62c-.37-.7-.59-1.19-.87-1.63-3.06-4.82-1.51-4.62-6.75-1.68-1.44.81-1.52,1.55-.68,2.86,3.15,4.94,1.7,4.52,6.76,1.62A14.76,14.76,0,0,0,426.16,279.62Zm-102,128.76c1.11-.36,2.89-4,2.88-5.9,0-.87-3.44-2.44-5.42-2.48-.94,0-3.39,4.09-2.51,5.39C320,406.86,322.37,407.43,324.11,408.39Zm-289-208-5.47,4.21L33.94,210c1.67-1.27,3.16-2.3,4.5-3.5a1.72,1.72,0,0,0,.15-1.66C37.59,203.37,36.42,202,35.15,200.37ZM204.82,430.5c1.65-1.28,3.11-2.34,4.46-3.52a1.58,1.58,0,0,0,.34-1.47c-1.08-1.59-2.31-3.08-3.59-4.73-1.67,1.28-3.09,2.28-4.37,3.43a1.76,1.76,0,0,0-.37,1.64C202.31,427.4,203.52,428.83,204.82,430.5ZM409.69,299.57l2.82,6.26c1.9-.81,3.52-1.43,5.06-2.21.41-.2.93-1,.82-1.3a35.18,35.18,0,0,0-2-4.56,1.41,1.41,0,0,0-1.28-.47C413.34,297.94,411.64,298.73,409.69,299.57Zm-209-264.36,5.47,4.22,4.26-5.49-5.47-4.21Zm225.85,175,4.22-5.49-5.44-4.24L421,205.84ZM33.18,225.48l-5.23,4.92c1.49,1.3,2.8,2.55,4.24,3.64a1.78,1.78,0,0,0,1.68,0c1.43-1.09,2.74-2.35,4.18-3.62ZM230.72,432c1.16-1.27,2.44-2.56,3.56-4a1.76,1.76,0,0,0,0-1.68c-1.21-1.4-2.57-2.67-3.78-3.88L225.6,427Z"/><path class="cls-4" d="M232.75,50.36C329.16,51.4,412,130.54,410,234.65c-2,99.1-85.81,177.93-185.06,175A179.69,179.69,0,0,1,50.49,224.23C53.23,126.29,135.24,48.87,232.75,50.36Zm-2.61,356.94c96.76.41,177.32-79.09,177.5-176A177.47,177.47,0,0,0,230.71,52.68C133.87,52.54,54.77,130,52.84,225.21,50.73,329.32,134.16,407.45,230.14,407.29Z"/><path class="cls-5" d="M121.77,67c-1.51,1.54.52,4.92-2.61,5-1.66,0-5,1-5.09-2.2-.05-1.63-.87-4.82,2.09-5C117.9,64.6,120.55,64.29,121.77,67Z"/><path class="cls-5" d="M96.14,381c-.09-1-.19-1.79-.22-2.54-.24-5-.9-4.11,4.11-4.55,2.13-.19,2.78.51,2.79,2.57,0,4.86.89,4.15-4,4.51C98,381.06,97.19,381,96.14,381Z"/><path class="cls-6" d="M95.57,85.88l.42-7a40.74,40.74,0,0,1,5.66.47c.5.11,1.16,1.47,1,2.13-.29,1.59,1.06,4-1.32,4.62C99.65,86.59,97.67,86,95.57,85.88Z"/><path class="cls-7" d="M358.18,373.78l6.7.44c0,1.32,0,2.37,0,3.42-.18,3.41-.19,3.4-3.61,3.25-4.1-.18-3.52,0-3.3-3.72C358,376.14,358.09,375.09,358.18,373.78Z"/><path class="cls-8" d="M230.44,28.69l4.7,4.21-4.82,4.48-4.42-4.73Z"/><path class="cls-9" d="M427.23,234.38,422.69,230l5-4.81,4.64,5Z"/><path class="cls-8" d="M344.79,64.43c1.16,0,2.67,2.91,2,5.59s-3.66,2.11-5.33,1.92c-2.81-.32-1.49-3.4-2.11-5.21C339,65.57,341.73,64.43,344.79,64.43Z"/><path class="cls-10" d="M186.29,37.77c-.43.81-.68,1.35-1,1.86-3,4.66-1.48,4.44-6.56,1.61-1.48-.82-1.66-1.54-.77-3,2.52-4.16,2.46-4.2,6.54-1.7C185.05,36.88,185.59,37.28,186.29,37.77Z"/><path class="cls-11" d="M86.37,102.2a12.46,12.46,0,0,1-1.51.3c-1.66.1-3.32.16-5.29.25L79.1,95.9c2.07-.14,3.87-.34,5.68-.32A1.75,1.75,0,0,1,86,96.73C86.26,98.51,86.28,100.33,86.37,102.2Z"/><path class="cls-10" d="M305.95,412.08c-.23.69-.35,1.2-.57,1.67-2.55,5.51-1.14,4.76-6.61,2.63-1.34-.52-1.72-1.15-1-2.55,2.65-5.52,1.23-4.79,6.63-2.58C304.83,411.44,305.27,411.73,305.95,412.08Z"/><path class="cls-11" d="M54,318.29l5.35,1.64c.07,0,.17,0,.21.08,1.72,2-.49,3.55-.58,5.36-.06,1.07-.7,1.55-1.9,1.15-6.38-2.13-5.34-.7-3.75-6.39C53.49,319.63,53.7,319.15,54,318.29Z"/><path class="cls-8" d="M48.07,305.73c-.71-.27-1.21-.43-1.68-.66-5.39-2.6-4.91-.92-2.48-6.8.48-1.15,1-1.48,2.23-.92,5.9,2.73,5.07,1.14,2.77,6.83A16.45,16.45,0,0,1,48.07,305.73Z"/><path class="cls-6" d="M420.25,176.85a9,9,0,0,1,1,.34c5.53,2.92,5.65,3.62,1.29,8.82-1.56-.93-3.2-1.83-4.74-2.89a1.57,1.57,0,0,1-.34-1.49C418.27,180,419.26,178.49,420.25,176.85Z"/><path class="cls-6" d="M389.35,346.4l-1-5.28a.53.53,0,0,1,0-.22c.69-2.26,2.78-1.2,4.2-1.69.81-.28,2.13-1,2.63.64,0,.15.06.3.1.45C396.63,345.54,395.55,346.69,389.35,346.4Z"/><path class="cls-7" d="M381.12,357.25c.12,2.09.3,3.9.26,5.7a1.75,1.75,0,0,1-1.14,1.25c-1.79.22-3.61.23-5.57.32-.14-1.83-.26-3.41-.37-5,0-.52,0-1,0-1.82Z"/><path class="cls-6" d="M38,273.94l4.71,2.8c.06,0,.15.07.18.13,1.13,2.22-1.15,3.25-1.79,4.84-.21.51-1.3.66-2,1,0,0-.13-.07-.19-.11C33.9,280.09,33.8,279.35,38,273.94Z"/><path class="cls-7" d="M381.4,95.78c-.1,2-.19,3.85-.28,5.65,0,.08,0,.17,0,.22-1.55,2-3.61.4-5.4.71-1.16.2-1.61-.5-1.5-1.66.16-1.66.24-3.32.38-5.3Z"/><path class="cls-8" d="M120.36,388.11l1,5.26a.46.46,0,0,1,0,.22c-.94,2.36-3.24,1.23-4.88,1.79-.5.17-1.33-.61-2-1,0,0,0-.14,0-.22C113.09,388.94,114.13,387.83,120.36,388.11Z"/><path class="cls-6" d="M345.75,395.74c-2.09-.38-3.81-.62-5.49-1-.45-.11-1.12-.75-1.09-1.1.16-1.65.05-3.63.93-4.85,1.41-2,3.55-.08,5.38,0,.43,0,1.22,1.06,1.18,1.59A52.89,52.89,0,0,1,345.75,395.74Z"/><path class="cls-6" d="M135.2,408.26l-2-6.6,5.44-1.7c.07,0,.16-.07.22,0,2.38.69,1.66,3.07,2.4,4.63a2.2,2.2,0,0,1-.78,2A44.79,44.79,0,0,1,135.2,408.26Z"/><path class="cls-11" d="M64.48,114.48c2-.35,3.82-.73,5.62-.9a1.74,1.74,0,0,1,1.35,1c.44,1.68.66,3.41,1,5.49l-6.82,1.26Z"/><path class="cls-11" d="M388.09,120.29l1.24-6.82c2,.37,3.88.66,5.71,1.09a1.42,1.42,0,0,1,.86,1.06,35.06,35.06,0,0,1-.89,4.93c-.09.33-.94.7-1.4.65C391.89,121,390.19,120.65,388.09,120.29Z"/><path class="cls-10" d="M136.81,52.17c1.23,1.26,4.55-.22,4.76,2.66s-1.68,5.65-2.73,5.16c-1.74-.81-4.81.09-5-2.64S135.35,52,136.81,52.17Z"/><path class="cls-5" d="M319,54.2c1.17-1.6,3.47-1.4,5.32-2,1-.35,3.07,3,2.66,5.3-.46,2.62-3.41,1.76-5.19,2.57C320.88,60.45,319.21,57.21,319,54.2Z"/><path class="cls-7" d="M79.6,357.34l6.86.45-.39,6.56c-2.1,0-4,.06-5.84-.06-.35,0-.94-.78-.94-1.19C79.3,361.3,79.47,359.49,79.6,357.34Z"/><path class="cls-6" d="M405.69,318.23c1,.43,3.39,5.28,2.62,5.94-1.52,1.29-3.71,1.79-5.62,2.62-.8-1.86-2.63-4.11-2.11-5.46S403.89,319.22,405.69,318.23Z"/><path class="cls-10" d="M154.61,47.75l2.14-4.92a.53.53,0,0,1,.11-.2c1.83-1.52,3,.49,4.42.93.75.23,1.26,1.29,1.86,2,0,.05-.1.27-.16.41C161.16,51.09,159.61,51.46,154.61,47.75Z"/><path class="cls-6" d="M186.34,422.26a20.21,20.21,0,0,1-1.76,1.28c-4.85,2.81-3.45,3.05-6.45-1.55-1-1.48-.84-2.27.77-3.19,4.16-2.38,4.12-2.46,6.55,1.81C185.71,421.06,186,421.54,186.34,422.26Z"/><path class="cls-11" d="M57.71,133.21c.87,0,3,3.82,2.53,5.5-.73,2.43-3.51,1.7-5.31,2.54-.83.39-2.57-3.1-2.68-5.34C52.19,135,55.59,133.29,57.71,133.21Z"/><path class="cls-11" d="M426.5,249.79l4.27,5.5c-1.67,1.29-3.12,2.47-4.66,3.54a1.4,1.4,0,0,1-1.35-.08,39.83,39.83,0,0,1-3.08-3.91,1.38,1.38,0,0,1,.21-1.32C423.29,252.28,424.79,251.15,426.5,249.79Z"/><path class="cls-11" d="M33.91,249.82a51.8,51.8,0,0,1,4.25,3.34c.39.38.26,1.31.35,2,0,.05-.09.12-.13.18-3.2,4.61-4.07,4.61-8.55-.26Z"/><path class="cls-8" d="M255.56,430.48l-5.51-4.21,4.27-5.49c1.65,1.28,3.21,2.43,4.67,3.68a1.39,1.39,0,0,1,.13,1.34C258,427.33,256.86,428.79,255.56,430.48Z"/><path class="cls-6" d="M302.57,41.7c.95.29,3.85,4.62,3.17,5.41-1.29,1.5-3.42,2.28-5.21,3.36-1-1.82-3.07-3.81-2.81-5.42C297.94,43.71,300.86,42.8,302.57,41.7Z"/><path class="cls-6" d="M277.61,416.29c2.24,1.43,3.92,2.46,5.53,3.58.17.12,0,.85-.12,1.23-2,4.78-3.47,5.16-7.63,2-.24-.18-.69-.49-.66-.56C275.61,420.53,276.56,418.53,277.61,416.29Z"/><path class="cls-10" d="M412.41,154.22c2,.88,3.68,1.61,5.34,2.46a1.4,1.4,0,0,1,.57,1.22,39.81,39.81,0,0,1-2,4.55,1.4,1.4,0,0,1-1.27.47,33,33,0,0,1-4.36-1.89,1.57,1.57,0,0,1-.56-1.41C410.75,157.87,411.56,156.17,412.41,154.22Z"/><path class="cls-6" d="M254.52,39.29c-.45-.4-.69-.58-.88-.81-4-4.6-3.74-5.6,2.15-8.53,1.1,1.43,2.31,2.86,3.34,4.42a1.77,1.77,0,0,1-.4,1.63C257.44,37.15,256,38.15,254.52,39.29Z"/><path class="cls-8" d="M37.81,186.24l-3.52-5.95,5.92-3.53c1,1.75,2.07,3.31,2.91,5a1.73,1.73,0,0,1-.47,1.6C41.17,184.36,39.58,185.2,37.81,186.24Z"/><path class="cls-8" d="M283.69,40.23a8.38,8.38,0,0,0-1.41.67c-4.27,3.08-5.27,2.84-7.44-2a1.92,1.92,0,0,1,.39-1.8c1.64-.89,3.73-2.48,5-2S282.34,38,283.69,40.23Z"/><path class="cls-6" d="M358.07,86.25l-.43-6.86c2-.14,3.8-.33,5.59-.35.44,0,1.23.49,1.28.84a31.53,31.53,0,0,1,.31,5c0,.34-.74.91-1.19,1C361.92,86.05,360.18,86.11,358.07,86.25Z"/><path class="cls-11" d="M402,133.48a5.1,5.1,0,0,1,.87,0c6.13,1.38,6.54,2.26,3.59,8.34-1.74-.54-3.55-1-5.3-1.71a1.58,1.58,0,0,1-.69-1.36C400.86,136.94,401.46,135.22,402,133.48Z"/><path class="cls-10" d="M160.5,408.83c1,2.48,2.86,4.71,2.4,6.27-.41,1.39-3.61,3.08-5.08,2.7s-3.22-3.57-2.82-4.93C155.45,411.32,158.16,410.43,160.5,408.83Z"/><path class="cls-11" d="M64.64,345.41c.09-.89.13-1.41.21-1.93.83-5.34,1.22-5.59,6.39-3.92.43.14,1.11.63,1.07.89a56.32,56.32,0,0,1-1,5.56c0,.21-.77.44-1.14.38C68.38,346.13,66.62,345.77,64.64,345.41Z"/><path class="cls-8" d="M44.6,163.24c-.87-1.91-1.65-3.47-2.27-5.09a1.63,1.63,0,0,1,.33-1.5,35.7,35.7,0,0,1,4.57-2.07,1.4,1.4,0,0,1,1.25.53c.84,1.68,1.56,3.43,2.43,5.41Z"/><path class="cls-6" d="M426.16,279.62a14.76,14.76,0,0,1-1.55,1.17c-5.06,2.9-3.61,3.32-6.76-1.62-.84-1.32-.76-2.06.68-2.86,5.24-2.94,3.69-3.14,6.75,1.68C425.56,278.44,425.78,278.92,426.16,279.62Z"/><path class="cls-6" d="M324.11,408.39c-1.74-1-4.07-1.52-5.05-3-.87-1.3,1.57-5.41,2.51-5.39,2,0,5.41,1.61,5.42,2.48C327,404.35,325.22,408,324.11,408.39Z"/><path class="cls-11" d="M35.15,200.37c1.27,1.62,2.44,3,3.44,4.49a1.72,1.72,0,0,1-.15,1.66c-1.34,1.2-2.83,2.23-4.5,3.5l-4.26-5.45Z"/><path class="cls-8" d="M204.82,430.5c-1.3-1.67-2.51-3.1-3.54-4.65a1.76,1.76,0,0,1,.37-1.64c1.28-1.15,2.71-2.15,4.37-3.43,1.27,1.65,2.51,3.14,3.59,4.73a1.58,1.58,0,0,1-.34,1.47C207.93,428.16,206.47,429.22,204.82,430.5Z"/><path class="cls-6" d="M409.69,299.57c2-.84,3.65-1.63,5.4-2.28a1.41,1.41,0,0,1,1.28.47,35.18,35.18,0,0,1,2,4.56c.11.31-.41,1.1-.82,1.3-1.54.77-3.16,1.4-5.06,2.21Z"/><path class="cls-11" d="M200.65,35.21l4.26-5.48,5.47,4.21-4.26,5.49Z"/><path class="cls-11" d="M426.5,210.19,421,205.84l4.27-5.38,5.44,4.24Z"/><path class="cls-5" d="M33.18,225.48,38,230.41c-1.44,1.27-2.75,2.53-4.18,3.62a1.78,1.78,0,0,1-1.68,0c-1.44-1.09-2.75-2.34-4.24-3.64Z"/><path class="cls-9" d="M230.72,432l-5.12-5,4.93-4.55c1.21,1.21,2.58,2.48,3.78,3.88a1.76,1.76,0,0,1,0,1.68C233.16,429.45,231.88,430.74,230.72,432Z"/><path class="cls-12" d="M333.39,296.17H279.68A8,8,0,0,1,277,296c-.66-.25-1.59-1.13-1.52-1.6a3,3,0,0,1,1.56-1.86,6.09,6.09,0,0,1,2.48-.15l57.15.09a9.6,9.6,0,0,0,9.16-9.19c-1,0-2.08-.14-3.12-.14h-63.1a7.39,7.39,0,0,1-2.7-.21,2.5,2.5,0,0,1-1.44-1.71c0-.59.78-1.39,1.42-1.73a5,5,0,0,1,2.24-.23q35.21,0,70.41,0c5.79,0,10.06-3.59,10.5-9.13H100.74c-.29,4.46,4.16,9,9,9.1,4.49.08,9,0,13.49,0h57.84a6.08,6.08,0,0,1,2.48.17c.7.33,1.6,1.2,1.58,1.82s-1,1.45-1.66,1.74a7.61,7.61,0,0,1-2.71.15h-63.1c-3.31,0-3.68.54-2.15,3.51,2,3.93,5.07,5.86,9.72,5.82,19-.16,37.95-.08,56.92-.07,1.39,0,3.05,0,3,1.89s-1.68,1.88-3.06,1.88H130.68c-3.69,0-4,.57-2.24,3.86,2.09,3.85,5.32,5.59,9.73,5.57,13.26-.08,26.52,0,39.78,0,1.3,0,2.59,0,3.89,0s3.29-.32,3.25,1.82c0,1.9-1.79,1.74-3.15,1.75-14.63,0-29.26,0-43.89,0-7.27,0-12.15-3.91-14.24-10.9a3.64,3.64,0,0,0-2-2.27c-5.79-1.46-9.14-5.28-10.67-10.81a2.75,2.75,0,0,0-2.75-2.36c-6.58-.85-12.07-7.5-11.94-14.17a2.08,2.08,0,0,1,2.17-2.36c1-.06,2-.05,3-.05h257c.76,0,1.52,0,2.29,0,3,.06,3.58.74,3.18,3.77-.94,7-5.6,11.71-12.53,12.94a2.72,2.72,0,0,0-1.79,1.57c-1.71,5.95-5,10.16-11.39,11.54-.59.13-1.24,1-1.45,1.72-2.49,8-6.88,11.37-15.23,11.38q-21.15,0-42.29,0c-1.48,0-3.76.61-3.79-1.72,0-2.59,2.38-1.8,3.88-1.81,14.33-.05,28.65,0,43,0,5.22,0,8.56-2.23,10.3-6.76C333,298.12,333.08,297.38,333.39,296.17Z"/><path class="cls-13" d="M332.63,159.23c-.59,3-1.1,5.85-1.68,8.64-1.39,6.63-2.86,13.23-4.19,19.87-.31,1.54-1.31,3.75.58,4.52,1.16.48,3.18-.39,4.49-1.18a10.18,10.18,0,0,0,5-7.46c1.24-7.42,3-14.76,4.37-22.16.35-1.85,1.09-2.54,3-2.42,2.69.18,5.41,0,8.31,0l-.83,5.29c6-6.61,12.58-7.44,20.41-2.58-2.43,2-4.6,3.87-6.86,5.6-.32.25-1.18.07-1.65-.18-3.14-1.66-5.91-.9-8.43,1.27-3.61,3.11-6.14,6.77-6.75,11.75s-1.85,9.87-2.73,14.81c-.26,1.47-.88,2-2.41,2-2.88-.11-5.77,0-8.79,0v-3.34c-3.3,2.12-6.41,3.87-10.27,3.84-4.29,0-6.56-2.32-7.7-6.24l-1-.68a10.36,10.36,0,0,1-1.43,2.61,14.62,14.62,0,0,1-12.75,4.21c-5.52-.73-9.22-6.08-8.65-12.64.29-3.31.94-6.59,1.46-10.13-2.11.72-3.73,1.34-4.22,4-1.43,7.75-5.37,14-12.73,17.34-11.28,5.14-21.76-2.06-21.23-14.38.45-10.49,8.49-20.19,18.46-22.43,9.28-2.09,15.78,2.93,16.27,10.83,0,.13.15.25.38.61,2.78-.55,5.53-1.44,7.37-3.79A19.2,19.2,0,0,1,315,159.07c5,.1,10.06,0,15.09,0C330.78,159.09,331.52,159.17,332.63,159.23ZM303.74,185a38.76,38.76,0,0,0,1.18,5.05,2.7,2.7,0,0,0,3.68,1.82c3.89-1.69,7.12-4.46,8.29-8.55,1.39-4.87,1.87-10,3-14.94.44-1.95.09-3.56-1.51-4.29a6.33,6.33,0,0,0-4.63-.34,11.64,11.64,0,0,0-4.35,3.84C305.7,172.78,304.15,178.68,303.74,185Zm-23.62-15.16c-.44-3-2.43-5.68-4.59-6-2.68-.37-4.17,1.57-5,3.57a66.76,66.76,0,0,0-3.19,9.94,17.5,17.5,0,0,0,.59,11c1.76,4.29,5.64,4.85,8.52,1.27,2.46-3.06,3.52-6.72,4.09-10.51.08-.53-.57-1.42-1.13-1.76-1.48-.91-3.14-1.54-4.6-2.47a1.87,1.87,0,0,1-.46-1.77c1-1.6,2.17-3.07,3.31-4.64Z"/><path class="cls-14" d="M206.09,163.57v-2.15c-.36.18-.65.22-.69.35a3.18,3.18,0,0,1-4,2.37c-1.41-.24-2,.41-2.28,1.8-1.52,7.77-3.16,15.51-4.62,23.28-.18,1,.08,2.56.73,3a3.21,3.21,0,0,0,3.06-.33,36.27,36.27,0,0,0,6.32-6.72c1.21-1.85,2.29-2.06,4.3-1.52a21,21,0,0,1-8.09,10.78,14.64,14.64,0,0,1-8.9,3.08c-3.62,0-5.81-1.49-7.18-4.89-.19-.47-.41-.94-.64-1.47a48.27,48.27,0,0,1-5.42,4,18.91,18.91,0,0,1-5.94,2.16c-4.78.77-8.18-1.11-9.44-6.27l-.89-.34a11.12,11.12,0,0,1-1.41,2.34,14.8,14.8,0,0,1-12.72,4.32,10.08,10.08,0,0,1-8.58-8.87c-.8-8.52,1.24-16.36,6.72-23.06a16.69,16.69,0,0,1,12.95-6.3c6-.14,12,0,18.05-.11,1.76,0,2,.64,1.69,2.22-1.88,8.7-3.67,17.41-5.5,26.12a3.72,3.72,0,0,0-.21,1.12c.15,1.29.38,2.56.58,3.85,1.34-.26,2.9-.16,4-.84a13.93,13.93,0,0,0,6.92-10c.93-5.69,2.25-11.32,3.45-17.22l-3.95-.37c.12-3.25,1-4.24,4-5a2.34,2.34,0,0,0,1.33-1.49c.57-2.2.92-4.47,1.46-6.68.14-.58.56-1.45,1-1.55,3.3-.79,6.64-1.41,10.46-2.19l-2.19,12c1.86,0,3.43-.07,5,0,2.4.14,1.36-2.41,2.57-3.17Zm-55.55,21.76a36.61,36.61,0,0,0,1.21,4.81,2.7,2.7,0,0,0,3.72,1.73c3.84-1.76,7.08-4.49,8.23-8.61,1.36-4.88,1.87-10,3-14.94a4.17,4.17,0,0,0-6-4.67,16.81,16.81,0,0,0-4.51,4C152.41,172.92,150.89,178.91,150.55,185.33Z"/><path class="cls-15" d="M206.09,163.57l2-7.62.77-1.52.67-1.19a25.9,25.9,0,0,1,17.1-11.74l1.28-.38,4.59-.8h4.07l2.76.37,1.32.31,1.88.51,1.25.47a10,10,0,0,1,6.15,5.3c.65,3,1.43,6,.26,9.07-.43,1.11-.78,2.25-1.17,3.38v.13l-.12,0L248,161l-2,2.09-1.25.91,0,0c-1.08.78-.56,1.11.37,1.31l3.78,1.94,2.68,2.72.13.07v.15l.78,1.16.13.06v.14a84.4,84.4,0,0,1,1.21,9.11c.06,2-.7,4.12-1.09,6.18l-.75,1.42-.75,1.09-.55.73-2.27,2.26-.69.56-1.13.74-1.21.62-4.28,1.59-.92.14-.91.28-1.85.16-1.81.33-19.65.1-.39-1.72.35-1.39.11-.9.36-1.39.1-.9.35-1.39.11-.9.28-.93.18-1.36.35-1.39.11-.9.34-1.39.11-.9.34-1.39.11-.9.34-1.39.11-.9.34-1.39.12-.89.34-1.39.12-.89.34-1.39.12-.89.34-1.39.12-.89.34-1.39.28-1.33.19-.95.12-.9.33-1.39.27-1.33.18-.95.28-1.35.17-.94.28-1.35.17-.94.29-1.35.17-.94.29-1.35.17-.94.3-1.34.16-.94.15-1.85-1.05.39-1.08.6-1.2.79-.75.57-2.4,2.34L216.66,154l-.59,1.27-.44,1.47-.23,1.81v1l.22,1.8.45,1.47q0,.95,0,1.89l0,0-1.09.54-1,.4-5,2.33-1,.44-2-1.58Zm21.07,27.74c5.58.29,10.89-2,13.88-6.11,2.46-3.38,3.42-7.16,1.64-11.17s-5.19-5.39-9.2-5.67c-.67,0-1.92.6-2,1.1C229.95,176.66,228.59,183.9,227.17,191.31Zm5.53-28.11c6.52-1,10.14-5.12,10-11.09-.06-4-2.32-6.65-6.41-7.14Z"/><path class="cls-13" d="M110.75,197l9.88-49.19c-3.51-1-11.47,1.52-13.4,4.16-1.6,2.18-1.21,4.67-.66,7a55.63,55.63,0,0,0,1.92,5.55l-10.27,4.59c-2.21-10.45.6-23,14.23-26.61a74.42,74.42,0,0,1,14.61-2.23c6.76-.39,13.56-.16,20.34-.17.59,0,1.18.1,2.19.19-.7,2.18-1.23,4.22-2.06,6.13-.22.51-1.35.87-2.07.89q-6.05.13-12.11,0c-1.3,0-1.89.36-2.13,1.69-.74,4.08-1.61,8.14-2.51,12.57h11.15c-.82,2.48-1.43,4.55-2.25,6.53-.16.38-1.17.53-1.8.55-2.21.07-4.42.09-6.63,0-1.5-.06-2.11.49-2.39,2-1.46,7.85-3.1,15.67-4.54,23.52-.38,2.06-1.06,3-3.36,2.81C116.34,196.8,113.76,197,110.75,197Z"/><path class="cls-14" d="M230.13,262H194.7c-3.36,0-3.68-.36-3.52-3.69.72-14.53,13.54-27.16,28.06-27.48,7.39-.16,14.78-.17,22.17,0,14.68.36,27.71,13.69,27.92,28.37,0,2.29-.47,2.78-3.09,2.79-6,0-12,0-18.06,0Zm35.39-3.61a15.73,15.73,0,0,0,0-1.82c-1.61-12-12.41-21.86-24.57-22.15-6.85-.16-13.71-.14-20.57,0a26,26,0,0,0-25.27,21.09,22.51,22.51,0,0,0-.21,2.91Z"/><path class="cls-16" d="M230.13,292.51c11.35,0,22.7,0,34,0a7,7,0,0,1,7,4.91,6.67,6.67,0,0,1-2.45,7.72,9.68,9.68,0,0,1-4.88,1.57q-33.59.15-67.18,0c-4.61,0-7.74-3.18-7.65-7.34s3.26-6.91,7.78-6.92Q213.45,292.48,230.13,292.51Zm0,10.59H253.9c3.5,0,7,.05,10.5,0a3.39,3.39,0,0,0,3.46-3.26,3.52,3.52,0,0,0-3.33-3.66,18.38,18.38,0,0,0-2.05,0H203.8c-2.59,0-5.18-.07-7.76.06a3.43,3.43,0,0,0-3.24,4.64c.72,2,2.35,2.33,4.25,2.33C208.09,303.08,219.12,303.09,230.16,303.09Z"/><path class="cls-7" d="M230.33,310.92c11.8,0,23.6,0,35.39,0,1.2,0,3.17.3,3.42,1,.37,1-.18,2.63-.83,3.69-6.09,9.81-15.12,14.82-26.5,15.32-7.67.34-15.38.34-23.06,0-11.66-.51-20.84-5.65-26.9-15.84-1.78-3-1.06-4.17,2.4-4.18Q212.29,310.91,230.33,310.92Zm34.38,3.78H195.87c.68,1,1.08,1.7,1.59,2.31a27.53,27.53,0,0,0,20.17,10.25c6.68.35,13.4.2,20.1.14a49,49,0,0,0,8.63-.61A27.73,27.73,0,0,0,264.7,314.7Z"/><path class="cls-17" d="M269.15,282.18a2.7,2.7,0,0,1-.18,1.47,2.83,2.83,0,0,1-1.82,1.3c-.48,0-1.31-.8-1.47-1.38a18.2,18.2,0,0,1-.19-3.18,2.2,2.2,0,0,0-2.32-2.31c-1.49,0-2.15.95-2.21,2.37-.05,1.22,0,2.45-.17,3.65a5.85,5.85,0,0,1-6.24,5.12,5.77,5.77,0,0,1-5.39-5.75c-.05-1.14.2-2.41-.23-3.38s-1.54-1.91-2.31-1.88-1.75,1.22-2.09,2.11-.08,2.26-.18,3.4a5.86,5.86,0,0,1-11.71-.07c-.09-1.14,0-2.29-.12-3.42-.15-1.42-1.07-2.44-2.42-2.08a3.8,3.8,0,0,0-2,2.24c-.37,1-.09,2.26-.21,3.4a5.87,5.87,0,0,1-11.69.24,30.24,30.24,0,0,1-.14-3.42c0-1.52-.73-2.53-2.32-2.53s-2.23,1.1-2.28,2.58c0,1.07,0,2.14-.07,3.2a5.86,5.86,0,0,1-11.68.11c-.13-1.21.18-2.53-.2-3.62-.31-.9-1.44-2.21-2-2.13-.9.12-1.67,1.3-2.48,2,0,0,0,.15,0,.22,0,1.38.06,3.15-1.92,2.92-2.14-.25-1.76-2.18-1.59-3.66a5.87,5.87,0,0,1,11.71.19c.1,1.14-.2,2.38.18,3.4s1.48,2.21,2.05,2.11a3.78,3.78,0,0,0,2.34-2.13c.43-1.06.08-2.41.24-3.61a5.85,5.85,0,0,1,11.67.54c0,1.06-.25,2.28.17,3.15a3.94,3.94,0,0,0,2.43,2.05c.55.09,1.66-1.3,1.95-2.2.38-1.19.1-2.58.3-3.85a5.67,5.67,0,0,1,5.89-5,5.72,5.72,0,0,1,5.7,5.2,21.28,21.28,0,0,1,.12,2.74c0,1.68.33,3.24,2.37,3.18s2.27-1.65,2.26-3.31a17.11,17.11,0,0,1,.17-3,5.84,5.84,0,0,1,11.58.69c.06,1,0,2,.06,3,.1,1.41.62,2.62,2.26,2.64s2.31-1.22,2.42-2.73c.05-.68,0-1.37,0-2.06.06-3.79,2.31-6.29,5.72-6.36s5.95,2.48,6.08,6.3C269.16,281,269.15,281.34,269.15,282.18Z"/><path class="cls-14" d="M252.73,186.85c.39-2.06,1.15-4.13,1.09-6.18a84.4,84.4,0,0,0-1.21-9.11C255.53,176.63,255.32,181.73,252.73,186.85Z"/><path class="cls-14" d="M249,159.73c.39-1.13.75-2.27,1.17-3.38,1.18-3.07.39-6.07-.26-9.07C252.32,151,252,155.72,249,159.73Z"/><path class="cls-14" d="M209.09,167.9l5-2.33Z"/><path class="cls-14" d="M236.51,140.32h0Z"/><path class="cls-14" d="M251.55,170l-2.68-2.72Z"/><path class="cls-14" d="M241.1,195.85l4.28-1.59Z"/><path class="cls-14" d="M206.12,166.76l2,1.58-1.77.89Z"/><path class="cls-14" d="M218.74,150.87l2.4-2.34Z"/><path class="cls-14" d="M248.41,192.35l2.27-2.26Z"/><path class="cls-14" d="M224.17,146.58l1.05-.39-.15,1.85Z"/><path class="cls-14" d="M215.63,161.29l-.22-1.8Z"/><path class="cls-14" d="M215.58,195.15l.39,1.72Z"/><path class="cls-14" d="M235.62,196.76l1.81-.33Z"/><path class="cls-14" d="M215.41,158.51l.23-1.81Z"/><path class="cls-14" d="M216.1,164.66q0-.95,0-1.89Q216.09,163.71,216.1,164.66Z"/><path class="cls-14" d="M217.41,186l-.18,1.36Z"/><path class="cls-14" d="M245.09,165.32c-.94-.21-1.45-.53-.37-1.31Z"/><path class="cls-14" d="M244.75,164l1.25-.91Z"/><path class="cls-14" d="M223.07,158.12l-.28,1.35Z"/><path class="cls-14" d="M223.53,155.83l-.28,1.35Z"/><path class="cls-14" d="M224,153.55l-.29,1.35Z"/><path class="cls-14" d="M216.08,155.23l.59-1.27Z"/><path class="cls-14" d="M209.48,153.24l-.67,1.19Z"/><path class="cls-14" d="M224.44,151.26l-.29,1.35Z"/><path class="cls-14" d="M224.91,149l-.3,1.34Z"/><path class="cls-14" d="M251.23,189.35l.75-1.09Z"/><path class="cls-14" d="M221.89,148l1.2-.79Z"/><path class="cls-14" d="M243.73,142l-1.25-.47Z"/><path class="cls-14" d="M227.86,141.11l-1.28.38Z"/><path class="cls-14" d="M240.59,141l-1.32-.31Z"/><path class="cls-14" d="M216.95,188.29l-.11.9Z"/><path class="cls-14" d="M216,192.86l-.11.9Z"/><path class="cls-14" d="M246.59,193.64l1.13-.74Z"/><path class="cls-14" d="M239.27,196.28l.91-.28Z"/><path class="cls-14" d="M217.87,183.72l-.11.9Z"/><path class="cls-14" d="M218.33,181.43l-.11.9Z"/><path class="cls-14" d="M218.78,179.14l-.11.9Z"/><path class="cls-14" d="M219.24,176.86l-.11.9Z"/><path class="cls-14" d="M219.7,174.57l-.12.89Z"/><path class="cls-14" d="M220.16,172.29l-.12.89Z"/><path class="cls-14" d="M216.49,190.57l-.1.9Z"/><path class="cls-14" d="M252.47,171.35l-.78-1.16Z"/><path class="cls-14" d="M220.62,170l-.12.89Z"/><path class="cls-14" d="M221.08,167.71l-.12.89Z"/><path class="cls-14" d="M221.69,165l-.28,1.33Z"/><path class="cls-14" d="M215,165.17l1.09-.54Z"/><path class="cls-14" d="M222,163.14l-.12.9Z"/><path class="cls-14" d="M222.6,160.42l-.27,1.33Z"/><path class="cls-14" d="M248,161l.81-1.07Z"/><path class="cls-18" d="M224.14,238.09h5.47c1.38,0,3.08-.16,3.1,1.75,0,2.07-1.78,1.89-3.22,1.9-3,0-5.93,0-8.89,0-7-.09-12.14,2.71-15.36,9-.39.76-1.87,1.66-2.53,1.45-1.49-.46-1.21-1.87-.61-3.05,3.5-6.87,9-10.66,16.79-11.07C220.64,238,222.4,238.09,224.14,238.09Z"/></g></g></svg>